<?xml version="1.0" encoding="iso-8859-1"?>
<!-- Generator: Adobe Illustrator 19.0.0, SVG Export Plug-In . SVG Version: 6.00 Build 0)  -->
<svg version="1.1" id="Layer_1" xmlns="http://www.w3.org/2000/svg" xmlns:xlink="http://www.w3.org/1999/xlink" x="0px" y="0px"
	 viewBox="0 0 512 512" style="enable-background:new 0 0 512 512;" xml:space="preserve">
<circle style="fill:#8C50D7;" cx="256" cy="256" r="256"/>
<path style="fill:#733CB9;" d="M308.148,459.852c-141.384,0-256-114.616-256-256c0-57.393,18.889-110.372,50.785-153.067
	C40.452,97.465,0,172.007,0,256c0,141.384,114.616,256,256,256c83.993,0,158.535-40.452,205.215-102.933
	C418.52,440.964,365.541,459.852,308.148,459.852z"/>
<g>
	<path style="fill:#AA6EFF;" d="M293.972,79.468c-1.185,0-2.398-0.116-3.611-0.347c-11.24-2.171-22.796-3.269-34.361-3.269
		c-10.472,0-18.963-8.491-18.963-18.963S245.528,37.926,256,37.926c13.963,0,27.944,1.329,41.547,3.954
		c10.287,1.986,17.01,11.93,15.028,22.213C310.824,73.161,302.88,79.468,293.972,79.468z"/>
	<path style="fill:#AA6EFF;" d="M453.064,246.523c-9.278,0-17.389-6.824-18.741-16.282c-7.675-53.649-38.833-100.546-85.48-128.663
		c-8.972-5.408-11.861-17.061-6.453-26.028c5.399-8.981,17.047-11.866,26.028-6.453c56.444,34.023,94.149,90.801,103.444,155.774
		c1.491,10.366-5.713,19.973-16.083,21.458C454.871,246.458,453.963,246.523,453.064,246.523z"/>
</g>
<g>
	<path style="fill:#FFFFFF;" d="M379.259,248.889c6.546,0,11.852-5.306,11.852-11.852c0-6.546-5.306-11.852-11.852-11.852h-10.196
		l2.854-14.268c1.287-6.417-2.88-12.663-9.297-13.945c-6.482-1.292-12.658,2.875-13.945,9.297l-3.783,18.917h-23.237l2.854-14.268
		c1.287-6.417-2.88-12.663-9.297-13.945c-6.472-1.292-12.658,2.875-13.945,9.297l-3.783,18.917h-13.041
		c-6.546,0-11.852,5.306-11.852,11.852c0,6.546,5.306,11.852,11.852,11.852h8.3l-2.844,14.222h-14.937
		c-6.546,0-11.852,5.306-11.852,11.852c0,6.546,5.306,11.852,11.852,11.852h10.196l-2.854,14.268
		c-1.287,6.417,2.88,12.663,9.297,13.945c0.787,0.158,1.564,0.236,2.334,0.236c5.537,0,10.482-3.898,11.611-9.532l3.783-18.917
		h23.237l-2.854,14.268c-1.287,6.417,2.88,12.663,9.297,13.945c0.787,0.158,1.564,0.236,2.334,0.236
		c5.537,0,10.482-3.898,11.611-9.532l3.783-18.917h13.041c6.546,0,11.852-5.306,11.852-11.852c0-6.546-5.306-11.852-11.852-11.852
		h-8.3l2.844-14.222H379.259z M337.307,263.111h-23.237l2.844-14.222h23.237L337.307,263.111z"/>
	<path style="fill:#FFFFFF;" d="M199.111,192c11.176,0,21.945,3.393,31.138,9.81c5.389,3.759,12.768,2.436,16.51-2.936
		c3.74-5.365,2.426-12.755-2.936-16.5c-13.203-9.212-28.657-14.078-44.712-14.078c-43.13,0-78.222,35.092-78.222,78.222v18.963
		c0,43.13,35.092,78.222,78.222,78.222c16.056,0,31.509-4.865,44.713-14.079c5.361-3.745,6.676-11.135,2.936-16.5
		c-3.75-5.361-11.121-6.69-16.51-2.936c-9.195,6.418-19.963,9.811-31.14,9.811c-30.065,0-54.519-24.459-54.519-54.519v-18.963
		C144.593,216.459,169.047,192,199.111,192z"/>
</g>
<g>
</g>
<g>
</g>
<g>
</g>
<g>
</g>
<g>
</g>
<g>
</g>
<g>
</g>
<g>
</g>
<g>
</g>
<g>
</g>
<g>
</g>
<g>
</g>
<g>
</g>
<g>
</g>
<g>
</g>
</svg>
